<?xml version="1.0" encoding="UTF-8" standalone="no"?>
<!DOCTYPE svg PUBLIC "-//W3C//DTD SVG 1.1//EN"
 "http://www.w3.org/Graphics/SVG/1.1/DTD/svg11.dtd">
<!-- Generated by graphviz version 2.43.0 (0)
 -->
<!-- Title: G Pages: 1 -->
<svg width="468pt" height="444pt"
 viewBox="0.00 0.00 468.00 444.00" xmlns="http://www.w3.org/2000/svg" xmlns:xlink="http://www.w3.org/1999/xlink">
<g id="graph0" class="graph" transform="scale(1 1) rotate(0) translate(4 440)">
<title>G</title>
<polygon fill="white" stroke="transparent" points="-4,4 -4,-440 464,-440 464,4 -4,4"/>
<g id="clust1" class="cluster">
<title>cluster_root</title>
<g id="a_clust1"><a xlink:title="eventq_index=0&#10;full_system=false&#10;sim_quantum=0&#10;time_sync_enable=false&#10;time_sync_period=100000000000&#10;time_sync_spin_threshold=100000000">
<path fill="#bab6ae" stroke="#000000" d="M20,-8C20,-8 440,-8 440,-8 446,-8 452,-14 452,-20 452,-20 452,-416 452,-416 452,-422 446,-428 440,-428 440,-428 20,-428 20,-428 14,-428 8,-422 8,-416 8,-416 8,-20 8,-20 8,-14 14,-8 20,-8"/>
<text text-anchor="middle" x="230" y="-412.8" font-family="Arial" font-size="14.00" fill="#000000">root </text>
<text text-anchor="middle" x="230" y="-397.8" font-family="Arial" font-size="14.00" fill="#000000">: Root</text>
</a>
</g>
</g>
<g id="clust2" class="cluster">
<title>cluster_system</title>
<g id="a_clust2"><a xlink:title="auto_unlink_shared_backstore=false&#10;cache_line_size=64&#10;eventq_index=0&#10;exit_on_work_items=false&#10;init_param=0&#10;m5ops_base=0&#10;mem_mode=timing&#10;mem_ranges=0:536870912&#10;memories=system.mem_ctrls.dram&#10;mmap_using_noreserve=false&#10;multi_thread=false&#10;&#10;um_work_ids=16&#10;&#13;eadfile=&#10;&#13;edirect_paths=system.redirect_paths0 system.redirect_paths1 system.redirect_paths2&#10;shadow_rom_ranges=&#10;shared_backstore=&#10;symbolfile=&#10;thermal_components=&#10;thermal_model=Null&#10;work_begin_ckpt_count=0&#10;work_begin_cpu_id_exit=&#45;1&#10;work_begin_exit_count=0&#10;work_cpus_ckpt_count=0&#10;work_end_ckpt_count=0&#10;work_end_exit_count=0&#10;work_item_id=&#45;1&#10;workload=system.workload">
<path fill="#e4e7eb" stroke="#000000" d="M28,-16C28,-16 432,-16 432,-16 438,-16 444,-22 444,-28 444,-28 444,-370 444,-370 444,-376 438,-382 432,-382 432,-382 28,-382 28,-382 22,-382 16,-376 16,-370 16,-370 16,-28 16,-28 16,-22 22,-16 28,-16"/>
<text text-anchor="middle" x="230" y="-366.8" font-family="Arial" font-size="14.00" fill="#000000">system </text>
<text text-anchor="middle" x="230" y="-351.8" font-family="Arial" font-size="14.00" fill="#000000">: System</text>
</a>
</g>
</g>
<g id="clust5" class="cluster">
<title>cluster_system_cpu</title>
<g id="a_clust5"><a xlink:title="block_offset=6&#10;clk_domain=system.clk_domain&#10;eventq_index=0&#10;inj_rate=0.1&#10;inj_vnet=&#45;1&#10;memory_size=65536&#10;&#10;um_dest=1&#10;&#10;um_packets_max=&#45;1&#10;power_model=&#10;power_state=system.cpu.power_state&#10;precision=3&#10;&#13;esponse_limit=5000000&#10;sim_cycles=1000&#10;single_dest=&#45;1&#10;single_sender=&#45;1&#10;system=system&#10;traffic_type=uniform_random">
<path fill="#bab6ae" stroke="#000000" d="M162,-24C162,-24 297,-24 297,-24 303,-24 309,-30 309,-36 309,-36 309,-102 309,-102 309,-108 303,-114 297,-114 297,-114 162,-114 162,-114 156,-114 150,-108 150,-102 150,-102 150,-36 150,-36 150,-30 156,-24 162,-24"/>
<text text-anchor="middle" x="229.5" y="-98.8" font-family="Arial" font-size="14.00" fill="#000000">cpu </text>
<text text-anchor="middle" x="229.5" y="-83.8" font-family="Arial" font-size="14.00" fill="#000000">: GarnetSyntheticTraffic</text>
</a>
</g>
</g>
<g id="clust9" class="cluster">
<title>cluster_system_ruby</title>
<g id="a_clust9"><a xlink:title="access_backing_store=false&#10;all_instructions=false&#10;block_size_bytes=64&#10;clk_domain=system.ruby.clk_domain&#10;eventq_index=0&#10;hot_lines=false&#10;memory_size_bits=48&#10;&#10;um_of_sequencers=1&#10;&#10;umber_of_virtual_networks=3&#10;phys_mem=Null&#10;power_model=&#10;power_state=system.ruby.power_state&#10;&#13;andomization=false&#10;system=system">
<path fill="#bab6ae" stroke="#000000" d="M136,-138C136,-138 424,-138 424,-138 430,-138 436,-144 436,-150 436,-150 436,-324 436,-324 436,-330 430,-336 424,-336 424,-336 136,-336 136,-336 130,-336 124,-330 124,-324 124,-324 124,-150 124,-150 124,-144 130,-138 136,-138"/>
<text text-anchor="middle" x="280" y="-320.8" font-family="Arial" font-size="14.00" fill="#000000">ruby </text>
<text text-anchor="middle" x="280" y="-305.8" font-family="Arial" font-size="14.00" fill="#000000">: RubySystem</text>
</a>
</g>
</g>
<g id="clust58" class="cluster">
<title>cluster_system_ruby_l1_cntrl0</title>
<g id="a_clust58"><a xlink:title="addr_ranges=0:18446744073709551615&#10;buffer_size=0&#10;clk_domain=system.ruby.clk_domain&#10;cluster_id=0&#10;downstream_destinations=&#10;eventq_index=0&#10;forwardFromCache=system.ruby.l1_cntrl0.forwardFromCache&#10;issue_latency=2&#10;mandatoryQueue=system.ruby.l1_cntrl0.mandatoryQueue&#10;mandatory_queue_latency=1&#10;&#10;umber_of_TBEs=256&#10;power_model=&#10;power_state=system.ruby.l1_cntrl0.power_state&#10;&#13;ecycle_latency=10&#10;&#13;equestFromCache=system.ruby.l1_cntrl0.requestFromCache&#10;&#13;esponseFromCache=system.ruby.l1_cntrl0.responseFromCache&#10;&#13;uby_system=system.ruby&#10;sequencer=system.ruby.l1_cntrl0.sequencer&#10;system=system&#10;transitions_per_cycle=32&#10;upstream_destinations=&#10;version=0">
<path fill="#9f9c95" stroke="#000000" d="M144,-146C144,-146 264,-146 264,-146 270,-146 276,-152 276,-158 276,-158 276,-278 276,-278 276,-284 270,-290 264,-290 264,-290 144,-290 144,-290 138,-290 132,-284 132,-278 132,-278 132,-158 132,-158 132,-152 138,-146 144,-146"/>
<text text-anchor="middle" x="204" y="-274.8" font-family="Arial" font-size="14.00" fill="#000000">l1_cntrl0 </text>
<text text-anchor="middle" x="204" y="-259.8" font-family="Arial" font-size="14.00" fill="#000000">: L1Cache_Controller</text>
</a>
</g>
</g>
<g id="clust62" class="cluster">
<title>cluster_system_ruby_l1_cntrl0_sequencer</title>
<g id="a_clust62"><a xlink:title="clk_domain=system.ruby.clk_domain&#10;coreid=99&#10;dcache=system.ruby.l1_cntrl0.cacheMemory&#10;deadlock_threshold=500000&#10;eventq_index=0&#10;garnet_standalone=true&#10;is_cpu_sequencer=true&#10;max_outstanding_requests=16&#10;&#10;o_retry_on_stall=false&#10;power_model=&#10;power_state=system.ruby.l1_cntrl0.sequencer.power_state&#10;&#13;uby_system=system.ruby&#10;support_data_reqs=true&#10;support_inst_reqs=true&#10;system=system&#10;using_ruby_tester=false&#10;version=0">
<path fill="#84827c" stroke="#000000" d="M155,-154C155,-154 252,-154 252,-154 258,-154 264,-160 264,-166 264,-166 264,-232 264,-232 264,-238 258,-244 252,-244 252,-244 155,-244 155,-244 149,-244 143,-238 143,-232 143,-232 143,-166 143,-166 143,-160 149,-154 155,-154"/>
<text text-anchor="middle" x="203.5" y="-228.8" font-family="Arial" font-size="14.00" fill="#000000">sequencer </text>
<text text-anchor="middle" x="203.5" y="-213.8" font-family="Arial" font-size="14.00" fill="#000000">: RubySequencer</text>
</a>
</g>
</g>
<g id="clust68" class="cluster">
<title>cluster_system_ruby_dir_cntrl0</title>
<g id="a_clust68"><a xlink:title="addr_ranges=0:536870912&#10;buffer_size=0&#10;clk_domain=system.ruby.clk_domain&#10;cluster_id=0&#10;downstream_destinations=&#10;eventq_index=0&#10;forwardToDir=system.ruby.dir_cntrl0.forwardToDir&#10;mandatory_queue_latency=1&#10;&#10;umber_of_TBEs=256&#10;power_model=&#10;power_state=system.ruby.dir_cntrl0.power_state&#10;&#13;ecycle_latency=10&#10;&#13;equestToDir=system.ruby.dir_cntrl0.requestToDir&#10;&#13;esponseToDir=system.ruby.dir_cntrl0.responseToDir&#10;&#13;uby_system=system.ruby&#10;system=system&#10;transitions_per_cycle=32&#10;upstream_destinations=&#10;version=0">
<path fill="#9f9c95" stroke="#000000" d="M296,-154C296,-154 416,-154 416,-154 422,-154 428,-160 428,-166 428,-166 428,-232 428,-232 428,-238 422,-244 416,-244 416,-244 296,-244 296,-244 290,-244 284,-238 284,-232 284,-232 284,-166 284,-166 284,-160 290,-154 296,-154"/>
<text text-anchor="middle" x="356" y="-228.8" font-family="Arial" font-size="14.00" fill="#000000">dir_cntrl0 </text>
<text text-anchor="middle" x="356" y="-213.8" font-family="Arial" font-size="14.00" fill="#000000">: Directory_Controller</text>
</a>
</g>
</g>
<g id="clust78" class="cluster">
<title>cluster_system_sys_port_proxy</title>
<g id="a_clust78"><a xlink:title="clk_domain=system.clk_domain&#10;eventq_index=0&#10;is_cpu_sequencer=true&#10;&#10;o_retry_on_stall=false&#10;power_model=&#10;power_state=system.sys_port_proxy.power_state&#10;&#13;uby_system=system.ruby&#10;support_data_reqs=true&#10;support_inst_reqs=true&#10;system=system&#10;using_ruby_tester=false&#10;version=0">
<path fill="#bab6ae" stroke="#000000" d="M37,-24C37,-24 128,-24 128,-24 134,-24 140,-30 140,-36 140,-36 140,-102 140,-102 140,-108 134,-114 128,-114 128,-114 37,-114 37,-114 31,-114 25,-108 25,-102 25,-102 25,-36 25,-36 25,-30 31,-24 37,-24"/>
<text text-anchor="middle" x="82.5" y="-98.8" font-family="Arial" font-size="14.00" fill="#000000">sys_port_proxy </text>
<text text-anchor="middle" x="82.5" y="-83.8" font-family="Arial" font-size="14.00" fill="#000000">: RubyPortProxy</text>
</a>
</g>
</g>
<g id="clust80" class="cluster">
<title>cluster_system_mem_ctrls</title>
<g id="a_clust80"><a xlink:title="clk_domain=system.clk_domain&#10;command_window=10000&#10;disable_sanity_check=false&#10;dram=system.mem_ctrls.dram&#10;eventq_index=0&#10;mem_sched_policy=frfcfs&#10;min_reads_per_switch=16&#10;min_writes_per_switch=16&#10;power_model=&#10;power_state=system.mem_ctrls.power_state&#10;qos_policy=Null&#10;qos_priorities=1&#10;qos_priority_escalation=false&#10;qos_q_policy=fifo&#10;qos_requestors= &#160;&#160;&#160;&#160;&#160;&#160;&#160;&#160;&#160;&#160;&#160;&#160;&#160;&#160;&#10;qos_syncro_scheduler=false&#10;qos_turnaround_policy=Null&#10;static_backend_latency=10000&#10;static_frontend_latency=10000&#10;system=system&#10;write_high_thresh_perc=85&#10;write_low_thresh_perc=50">
<path fill="#bab6ae" stroke="#000000" d="M332,-24C332,-24 392,-24 392,-24 398,-24 404,-30 404,-36 404,-36 404,-102 404,-102 404,-108 398,-114 392,-114 392,-114 332,-114 332,-114 326,-114 320,-108 320,-102 320,-102 320,-36 320,-36 320,-30 326,-24 332,-24"/>
<text text-anchor="middle" x="362" y="-98.8" font-family="Arial" font-size="14.00" fill="#000000">mem_ctrls </text>
<text text-anchor="middle" x="362" y="-83.8" font-family="Arial" font-size="14.00" fill="#000000">: MemCtrl</text>
</a>
</g>
</g>
<!-- system_system_port -->
<g id="node1" class="node">
<title>system_system_port</title>
<path fill="#b6b8bc" stroke="#000000" d="M103.5,-198C103.5,-198 36.5,-198 36.5,-198 30.5,-198 24.5,-192 24.5,-186 24.5,-186 24.5,-174 24.5,-174 24.5,-168 30.5,-162 36.5,-162 36.5,-162 103.5,-162 103.5,-162 109.5,-162 115.5,-168 115.5,-174 115.5,-174 115.5,-186 115.5,-186 115.5,-192 109.5,-198 103.5,-198"/>
<text text-anchor="middle" x="70" y="-176.3" font-family="Arial" font-size="14.00" fill="#000000">system_port</text>
</g>
<!-- system_sys_port_proxy_in_ports -->
<g id="node5" class="node">
<title>system_sys_port_proxy_in_ports</title>
<path fill="#94918b" stroke="#000000" d="M90.5,-68C90.5,-68 49.5,-68 49.5,-68 43.5,-68 37.5,-62 37.5,-56 37.5,-56 37.5,-44 37.5,-44 37.5,-38 43.5,-32 49.5,-32 49.5,-32 90.5,-32 90.5,-32 96.5,-32 102.5,-38 102.5,-44 102.5,-44 102.5,-56 102.5,-56 102.5,-62 96.5,-68 90.5,-68"/>
<text text-anchor="middle" x="70" y="-46.3" font-family="Arial" font-size="14.00" fill="#000000">in_ports</text>
</g>
<!-- system_system_port&#45;&gt;system_sys_port_proxy_in_ports -->
<g id="edge1" class="edge">
<title>system_system_port&#45;&gt;system_sys_port_proxy_in_ports</title>
<path fill="none" stroke="black" d="M70,-161.74C70,-140.36 70,-103.69 70,-78.44"/>
<polygon fill="black" stroke="black" points="73.5,-78.4 70,-68.4 66.5,-78.4 73.5,-78.4"/>
</g>
<!-- system_cpu_test -->
<g id="node2" class="node">
<title>system_cpu_test</title>
<path fill="#94918b" stroke="#000000" d="M201,-68C201,-68 171,-68 171,-68 165,-68 159,-62 159,-56 159,-56 159,-44 159,-44 159,-38 165,-32 171,-32 171,-32 201,-32 201,-32 207,-32 213,-38 213,-44 213,-44 213,-56 213,-56 213,-62 207,-68 201,-68"/>
<text text-anchor="middle" x="186" y="-46.3" font-family="Arial" font-size="14.00" fill="#000000">test</text>
</g>
<!-- system_ruby_l1_cntrl0_sequencer_in_ports -->
<g id="node3" class="node">
<title>system_ruby_l1_cntrl0_sequencer_in_ports</title>
<path fill="#6a6863" stroke="#000000" d="M206.5,-198C206.5,-198 165.5,-198 165.5,-198 159.5,-198 153.5,-192 153.5,-186 153.5,-186 153.5,-174 153.5,-174 153.5,-168 159.5,-162 165.5,-162 165.5,-162 206.5,-162 206.5,-162 212.5,-162 218.5,-168 218.5,-174 218.5,-174 218.5,-186 218.5,-186 218.5,-192 212.5,-198 206.5,-198"/>
<text text-anchor="middle" x="186" y="-176.3" font-family="Arial" font-size="14.00" fill="#000000">in_ports</text>
</g>
<!-- system_ruby_l1_cntrl0_sequencer_in_ports&#45;&gt;system_cpu_test -->
<g id="edge2" class="edge">
<title>system_ruby_l1_cntrl0_sequencer_in_ports&#45;&gt;system_cpu_test</title>
<path fill="none" stroke="black" d="M186,-151.72C186,-126.52 186,-89.84 186,-68.4"/>
<polygon fill="black" stroke="black" points="182.5,-151.74 186,-161.74 189.5,-151.74 182.5,-151.74"/>
</g>
<!-- system_ruby_dir_cntrl0_memory_out_port -->
<g id="node4" class="node">
<title>system_ruby_dir_cntrl0_memory_out_port</title>
<path fill="#7f7c77" stroke="#000000" d="M406,-198C406,-198 306,-198 306,-198 300,-198 294,-192 294,-186 294,-186 294,-174 294,-174 294,-168 300,-162 306,-162 306,-162 406,-162 406,-162 412,-162 418,-168 418,-174 418,-174 418,-186 418,-186 418,-192 412,-198 406,-198"/>
<text text-anchor="middle" x="356" y="-176.3" font-family="Arial" font-size="14.00" fill="#000000">memory_out_port</text>
</g>
<!-- system_mem_ctrls_port -->
<g id="node6" class="node">
<title>system_mem_ctrls_port</title>
<path fill="#94918b" stroke="#000000" d="M371,-68C371,-68 341,-68 341,-68 335,-68 329,-62 329,-56 329,-56 329,-44 329,-44 329,-38 335,-32 341,-32 341,-32 371,-32 371,-32 377,-32 383,-38 383,-44 383,-44 383,-56 383,-56 383,-62 377,-68 371,-68"/>
<text text-anchor="middle" x="356" y="-46.3" font-family="Arial" font-size="14.00" fill="#000000">port</text>
</g>
<!-- system_ruby_dir_cntrl0_memory_out_port&#45;&gt;system_mem_ctrls_port -->
<g id="edge3" class="edge">
<title>system_ruby_dir_cntrl0_memory_out_port&#45;&gt;system_mem_ctrls_port</title>
<path fill="none" stroke="black" d="M356,-161.74C356,-140.36 356,-103.69 356,-78.44"/>
<polygon fill="black" stroke="black" points="359.5,-78.4 356,-68.4 352.5,-78.4 359.5,-78.4"/>
</g>
</g>
</svg>
