<?xml version="1.0" encoding="UTF-8" standalone="no"?>
<!DOCTYPE svg PUBLIC "-//W3C//DTD SVG 1.1//EN"
 "http://www.w3.org/Graphics/SVG/1.1/DTD/svg11.dtd">
<!-- Generated by graphviz version 2.43.0 (0)
 -->
<!-- Title: G Pages: 1 -->
<svg width="346pt" height="75pt"
 viewBox="0.00 0.00 345.81 74.57" xmlns="http://www.w3.org/2000/svg" xmlns:xlink="http://www.w3.org/1999/xlink">
<g id="graph0" class="graph" transform="scale(1 1) rotate(0) translate(4 70.57)">
<title>G</title>
<polygon fill="white" stroke="transparent" points="-4,4 -4,-70.57 341.81,-70.57 341.81,4 -4,4"/>
<!-- system.ruby.network.routers0 -->
<g id="node1" class="node">
<title>system.ruby.network.routers0</title>
<path fill="#cce6fc" stroke="#000000" d="M81.22,-9.2C81.22,-9.2 111.22,-9.2 111.22,-9.2 117.22,-9.2 123.22,-15.2 123.22,-21.2 123.22,-21.2 123.22,-33.2 123.22,-33.2 123.22,-39.2 117.22,-45.2 111.22,-45.2 111.22,-45.2 81.22,-45.2 81.22,-45.2 75.22,-45.2 69.22,-39.2 69.22,-33.2 69.22,-33.2 69.22,-21.2 69.22,-21.2 69.22,-15.2 75.22,-9.2 81.22,-9.2"/>
<text text-anchor="middle" x="96.22" y="-23.5" font-family="Arial" font-size="14.00" fill="#000000">R 0</text>
</g>
<!-- system.ruby.network.routers2 -->
<g id="node3" class="node">
<title>system.ruby.network.routers2</title>
<path fill="#cce6fc" stroke="#000000" d="M153.05,-0.5C153.05,-0.5 183.05,-0.5 183.05,-0.5 189.05,-0.5 195.05,-6.5 195.05,-12.5 195.05,-12.5 195.05,-24.5 195.05,-24.5 195.05,-30.5 189.05,-36.5 183.05,-36.5 183.05,-36.5 153.05,-36.5 153.05,-36.5 147.05,-36.5 141.05,-30.5 141.05,-24.5 141.05,-24.5 141.05,-12.5 141.05,-12.5 141.05,-6.5 147.05,-0.5 153.05,-0.5"/>
<text text-anchor="middle" x="168.05" y="-14.8" font-family="Arial" font-size="14.00" fill="#000000">R 2</text>
</g>
<!-- system.ruby.network.routers0&#45;&#45;system.ruby.network.routers2 -->
<g id="edge1" class="edge">
<title>system.ruby.network.routers0&#45;&#45;system.ruby.network.routers2</title>
<path fill="none" stroke="#042d50" d="M123.34,-30.49C125.72,-30.32 128.15,-30.09 130.6,-29.82"/>
<polygon fill="#042d50" stroke="#042d50" points="131.12,-33.28 140.57,-28.49 130.2,-26.34 131.12,-33.28"/>
</g>
<!-- system.ruby.network.routers1 -->
<g id="node2" class="node">
<title>system.ruby.network.routers1</title>
<path fill="#cce6fc" stroke="#000000" d="M225.33,-4.23C225.33,-4.23 255.33,-4.23 255.33,-4.23 261.33,-4.23 267.33,-10.23 267.33,-16.23 267.33,-16.23 267.33,-28.23 267.33,-28.23 267.33,-34.23 261.33,-40.23 255.33,-40.23 255.33,-40.23 225.33,-40.23 225.33,-40.23 219.33,-40.23 213.33,-34.23 213.33,-28.23 213.33,-28.23 213.33,-16.23 213.33,-16.23 213.33,-10.23 219.33,-4.23 225.33,-4.23"/>
<text text-anchor="middle" x="240.33" y="-18.53" font-family="Arial" font-size="14.00" fill="#000000">R 1</text>
</g>
<!-- system.ruby.network.routers1&#45;&#45;system.ruby.network.routers2 -->
<g id="edge2" class="edge">
<title>system.ruby.network.routers1&#45;&#45;system.ruby.network.routers2</title>
<path fill="none" stroke="#042d50" d="M213,-20.82C210.57,-20.69 208.09,-20.56 205.59,-20.44"/>
<polygon fill="#042d50" stroke="#042d50" points="205.58,-16.93 195.41,-19.91 205.22,-23.92 205.58,-16.93"/>
</g>
<!-- system.ruby.network.routers2&#45;&#45;system.ruby.network.routers0 -->
<g id="edge3" class="edge">
<title>system.ruby.network.routers2&#45;&#45;system.ruby.network.routers0</title>
<path fill="none" stroke="#042d50" d="M140.92,-15.2C138.55,-15.38 136.11,-15.61 133.67,-15.88"/>
<polygon fill="#042d50" stroke="#042d50" points="133.14,-12.42 123.69,-17.21 134.07,-19.35 133.14,-12.42"/>
</g>
<!-- system.ruby.l1_cntrl0 -->
<g id="node4" class="node">
<title>system.ruby.l1_cntrl0</title>
<path fill="#e5bcd0" stroke="#000000" d="M12,-30.07C12,-30.07 42,-30.07 42,-30.07 48,-30.07 54,-36.07 54,-42.07 54,-42.07 54,-54.07 54,-54.07 54,-60.07 48,-66.07 42,-66.07 42,-66.07 12,-66.07 12,-66.07 6,-66.07 0,-60.07 0,-54.07 0,-54.07 0,-42.07 0,-42.07 0,-36.07 6,-30.07 12,-30.07"/>
<text text-anchor="middle" x="27" y="-44.37" font-family="Arial" font-size="14.00" fill="#000000">l1</text>
</g>
<!-- system.ruby.l1_cntrl0&#45;&#45;system.ruby.network.routers0 -->
<g id="edge4" class="edge">
<title>system.ruby.l1_cntrl0&#45;&#45;system.ruby.network.routers0</title>
<path fill="none" stroke="#381526" d="M64.02,-36.91C64.13,-36.87 64.23,-36.84 64.34,-36.81"/>
<polygon fill="#381526" stroke="#381526" points="62.92,-33.58 54.36,-39.82 64.94,-40.28 62.92,-33.58"/>
<polygon fill="#381526" stroke="#381526" points="60.5,-41.63 69.06,-35.39 58.48,-34.92 60.5,-41.63"/>
</g>
<!-- system.ruby.dir_cntrl0 -->
<g id="node5" class="node">
<title>system.ruby.dir_cntrl0</title>
<path fill="#e5bcd0" stroke="#000000" d="M295.81,-20.31C295.81,-20.31 325.81,-20.31 325.81,-20.31 331.81,-20.31 337.81,-26.31 337.81,-32.31 337.81,-32.31 337.81,-44.31 337.81,-44.31 337.81,-50.31 331.81,-56.31 325.81,-56.31 325.81,-56.31 295.81,-56.31 295.81,-56.31 289.81,-56.31 283.81,-50.31 283.81,-44.31 283.81,-44.31 283.81,-32.31 283.81,-32.31 283.81,-26.31 289.81,-20.31 295.81,-20.31"/>
<text text-anchor="middle" x="310.81" y="-34.61" font-family="Arial" font-size="14.00" fill="#000000">dir</text>
</g>
<!-- system.ruby.dir_cntrl0&#45;&#45;system.ruby.network.routers1 -->
<g id="edge5" class="edge">
<title>system.ruby.dir_cntrl0&#45;&#45;system.ruby.network.routers1</title>
<path fill="none" stroke="#381526" d="M273.93,-29.9C273.8,-29.87 273.67,-29.84 273.54,-29.81"/>
<polygon fill="#381526" stroke="#381526" points="273.23,-33.33 283.76,-32.14 274.79,-26.5 273.23,-33.33"/>
<polygon fill="#381526" stroke="#381526" points="278.18,-27.28 267.65,-28.46 276.62,-34.1 278.18,-27.28"/>
</g>
</g>
</svg>
